<svg xmlns="http://www.w3.org/2000/svg" xmlns:xlink="http://www.w3.org/1999/xlink" width="750" height="750.001" viewBox="0 0 750 750.001">
  <defs>
    <filter id="컵라면가이드라인" x="133.89" y="148.152" width="482.057" height="461" filterUnits="userSpaceOnUse">
      <feOffset dy="4" input="SourceAlpha"/>
      <feGaussianBlur stdDeviation="7.5" result="blur"/>
      <feFlood flood-opacity="0.2"/>
      <feComposite operator="in" in2="blur"/>
      <feComposite in="SourceGraphic"/>
    </filter>
  </defs>
  <g id="컵라면가이드라인-2" data-name="컵라면가이드라인" transform="translate(0 -150)">
    <path id="컵라면dim영역" d="M-1622,634h-750V-116h750V634Zm-543.912-284.457v0a205.58,205.58,0,0,0,73.563,83.333,200.37,200.37,0,0,0,108.887,32.076c111.977,0,203.077-92.367,203.077-205.9s-91.1-205.9-203.077-205.9c-74.1,0-142.33,40.944-178.069,106.854v-.02c-.023.048-.048.1-.073.143l-.014.026c-.018.035-.036.07-.053.1-1.008,1.865-1.9,3.566-2.724,5.2-4.388,8.015-9.554,15.772-14.549,23.272q-.958,1.439-1.912,2.874c-2.922,4.4-6.217,8.712-9.4,12.882-4.824,6.312-9.811,12.837-13.648,19.849a74.506,74.506,0,0,0-5.621,12.565,69.422,69.422,0,0,0-3.336,26.834,71.205,71.205,0,0,0,5,21.221,76.285,76.285,0,0,0,7.367,13.949,49.753,49.753,0,0,0,3.78,5.018c4.914,5.636,13.028,17.746,18.97,26.912,6.358,9.808,11.614,18.368,11.835,18.727v-.019h0Z" transform="translate(2372 266)" opacity="0.65"/>
    <g transform="matrix(1, 0, 0, 1, 0, 150)" filter="url(#컵라면가이드라인)">
      <path id="컵라면가이드라인-3" data-name="컵라면가이드라인" d="M967.559,193.52c-76.625,0-143.314,43.083-177.794,106.646v-.02c-.045.091-.095.182-.14.273q-1.392,2.576-2.718,5.192c-4.934,9.009-10.786,17.589-16.436,26.095-7.326,11.029-16.649,21.037-23.017,32.667a74.766,74.766,0,0,0-5.611,12.54c-12.631,38.708,12.788,66.892,12.788,66.892,9.5,10.892,30.758,45.551,30.758,45.551v-.023C818.374,557.547,887.55,604.52,967.559,604.52c111.983,0,202.763-92.005,202.763-205.5S1079.542,193.52,967.559,193.52Z" transform="translate(-579.38 -24.37)" fill="none" stroke="#f23e00" stroke-miterlimit="10" stroke-width="5"/>
    </g>
  </g>
</svg>
