<svg xmlns="http://www.w3.org/2000/svg" xmlns:xlink="http://www.w3.org/1999/xlink" width="750" height="750.001" viewBox="0 0 750 750.001">
  <defs>
    <filter id="멀티팩가이드라인" x="198.979" y="142" width="356.021" height="460.003" filterUnits="userSpaceOnUse">
      <feOffset dy="4" input="SourceAlpha"/>
      <feGaussianBlur stdDeviation="7.5" result="blur"/>
      <feFlood flood-opacity="0.2"/>
      <feComposite operator="in" in2="blur"/>
      <feComposite in="SourceGraphic"/>
    </filter>
  </defs>
  <g id="멀티팩가이드라인-2" data-name="멀티팩가이드라인" transform="translate(0.759 -150.995)">
    <path id="멀티팩dim영역" d="M-820,634h-750V-116h750V634ZM-1328.491,47h0a12.393,12.393,0,0,0-3.214.695,5.734,5.734,0,0,0-3.927,3.915c-.028.233-2.792,23.586-5.356,47.593-2.382,22.3-5.1,50-4.542,55.322l-.453,295.454a6.491,6.491,0,0,0,1.542,4.644c1.469,1.645,3.856,2.479,7.1,2.479.545,0,1.12-.024,1.711-.071H-1048.4a9.454,9.454,0,0,0,4.215-1.48,9.133,9.133,0,0,0,2.993-3.21,13.456,13.456,0,0,0,1.561-6.066V165.6c-.088-1.071-8.8-107.2-10.939-113.083a7.168,7.168,0,0,0-.771-2.31,4.938,4.938,0,0,0-3.839-2.684L-1328.491,47Z" transform="translate(1569.241 266.995)" opacity="0.65"/>
    <g transform="matrix(1, 0, 0, 1, -0.76, 150.99)" filter="url(#멀티팩가이드라인)">
      <path id="멀티팩가이드라인-3" data-name="멀티팩가이드라인" d="M5275.187,692.417S5264.217,785,5265.3,795.306l-.452,295.381s-.9,7.953,10.338,7.05h286.887s8.307-.362,8.758-10.755V806.376s-8.758-107.091-10.925-113.055c0,0-.519-4.5-4.6-4.994l-272.982-.52S5276.135,688.124,5275.187,692.417Z" transform="translate(-5040.83 -524.81)" fill="none" stroke="#f23f00" stroke-miterlimit="10" stroke-width="5"/>
    </g>
  </g>
</svg>
